{"title":"Dawn of the Planet of the Apes 2014  Untouched Hindi Dubbed SCam","uid":10574498,"size":656313997,"categoryP":"video","categoryS":"movies","magnet":"?xt=urn:btih:b798b2eff12458d23b53e2110e861411db44517a&amp;dn=Dawn+of+the+Planet+of+the+Apes+2014++Untouched+Hindi+Dubbed+SCam&amp;tr=udp%3A%2F%2Ftracker.openbittorrent.com%3A80&amp;tr=udp%3A%2F%2Fopen.demonii.com%3A1337&amp;tr=udp%3A%2F%2Ftracker.coppersurfer.tk%3A6969&amp;tr=udp%3A%2F%2Fexodus.desync.com%3A6969","seeders":13,"leechers":0,"uploader":"inovai","files":1,"time":1405625544,"description":"Format : Matroska\nFormat version : Version 4 / Version 2\nFile size : 626 MiB\nDuration : 1h 55mn\nOverall bit rate mode : Variable\nOverall bit rate : 759 Kbps\nMovie name : Dawn of the Planet of the Apes 2014 Untouched Hindi Dubbed SCamRip [Sumoman]\n\n\nVideo\nID : 1\nFormat : MPEG Video\nFormat version : Version 2\nFormat profile : Main@Main\nFormat settings, BVOP : No\nFormat settings, Matrix : Custom\nCodec ID : V_MPEG2\nCodec ID/Info : MPEG 1 or 2 Video\nDuration : 1h 55mn\nBit rate mode : Variable\nBit rate : 632 Kbps\nMaximum bit rate : 8 000 Kbps\nWidth : 704 pixels\nHeight : 576 pixels\nDisplay aspect ratio : 4:3\nFrame rate mode : Constant\nFrame rate : 25.000 fps\nStandard : NTSC\nColor space : YUV\nChroma subsampling : 4:2:0\nBit depth : 8 bits\nCompression mode : Lossy\nBits/(Pixel*Frame) : 0.062\nTime code of first frame : 00:00:00:00\nTime code source : Group of pictures header\nStream size : 521 MiB (83%)\nWriting library : TMPGEnc Video Mastering Works 5 Version. 5.0.5.32\nDefault : Yes\nForced : No\n\nAudio\nID : 2\nFormat : MPEG Audio\nFormat version : Version 1\nFormat profile : Layer 2\nCodec ID : A_MPEG/L2\nCodec ID/Hint : MP2\nDuration : 1h 55mn\nBit rate mode : Constant\nBit rate : 112 Kbps\nChannel(s) : 2 channels\nSampling rate : 48.0 KHz\nCompression mode : Lossy\nStream size : 92.3 MiB (15%)\nTitle : Hindi\nLanguage : Hindi\nDefault : Yes\nForced : No\n\nSpecial thanks to sumoman\n\nSeed please after download!!","torrent":{"xt":"urn:btih:b798b2eff12458d23b53e2110e861411db44517a","amp;dn":"Dawn+of+the+Planet+of+the+Apes+2014++Untouched+Hindi+Dubbed+SCam","amp;tr":["udp%3A%2F%2Ftracker.openbittorrent.com%3A80","udp%3A%2F%2Fopen.demonii.com%3A1337","udp%3A%2F%2Ftracker.coppersurfer.tk%3A6969","udp%3A%2F%2Fexodus.desync.com%3A6969"],"infoHash":"b798b2eff12458d23b53e2110e861411db44517a","infoHashBuffer":{"type":"Buffer","data":[183,152,178,239,241,36,88,210,59,83,226,17,14,134,20,17,219,68,81,122]},"announce":[],"urlList":[]}}